<svg width="185" height="185" viewBox="0 0 185 185" fill="none"
    xmlns="http://www.w3.org/2000/svg">
    <path d="M105.577 61.3084C100.683 64.7976 94.6937 66.85 88.225 66.85C71.6979 66.85 58.3 53.4521 58.3 36.925C58.3 20.3979 71.6979 7 88.225 7C98.938 7 108.336 12.6295 113.623 21.0916M41.2 161.645H63.518C66.4279 161.645 69.32 161.991 72.1408 162.684L95.7224 168.414C100.839 169.661 106.17 169.782 111.34 168.778L137.413 163.705C144.301 162.364 150.636 159.066 155.602 154.235L174.049 136.291C179.317 131.175 179.317 122.873 174.049 117.749C169.306 113.135 161.795 112.615 156.429 116.528L134.93 132.214C131.851 134.464 128.105 135.676 124.252 135.676H103.491L116.706 135.675C124.154 135.675 130.187 129.806 130.187 122.561V119.938C130.187 113.922 125.978 108.676 119.98 107.222L99.5845 102.262C96.2653 101.457 92.866 101.05 89.4488 101.05C81.1997 101.05 66.2677 107.88 66.2677 107.88L41.2 118.363M160.9 45.475C160.9 62.0021 147.502 75.4 130.975 75.4C114.448 75.4 101.05 62.0021 101.05 45.475C101.05 28.9479 114.448 15.55 130.975 15.55C147.502 15.55 160.9 28.9479 160.9 45.475ZM7 114.73L7 164.32C7 169.108 7 171.503 7.93189 173.332C8.75161 174.94 10.0596 176.248 11.6684 177.068C13.4973 178 15.8915 178 20.68 178H27.52C32.3084 178 34.7027 178 36.5316 177.068C38.1404 176.248 39.4484 174.94 40.2681 173.332C41.2 171.503 41.2 169.108 41.2 164.32V114.73C41.2 109.942 41.2 107.547 40.2681 105.718C39.4484 104.11 38.1404 102.802 36.5316 101.982C34.7027 101.05 32.3085 101.05 27.52 101.05L20.68 101.05C15.8916 101.05 13.4973 101.05 11.6684 101.982C10.0596 102.802 8.75161 104.11 7.9319 105.718C7 107.547 7 109.942 7 114.73Z" stroke="black" stroke-width="13" stroke-linecap="round" stroke-linejoin="round"/>
</svg>
