<svg width="185" height="184" viewBox="0 0 185 184" fill="none"
    xmlns="http://www.w3.org/2000/svg">
    <path d="M41.2 160.681H63.518C66.4279 160.681 69.32 161.026 72.1409 161.717L95.7224 167.435C100.839 168.679 106.17 168.8 111.34 167.798L137.413 162.737C144.301 161.398 150.636 158.107 155.602 153.287L174.049 135.382C179.317 130.277 179.317 121.994 174.049 116.881C169.306 112.277 161.795 111.759 156.43 115.663L134.93 131.314C131.851 133.559 128.105 134.769 124.252 134.769H103.491L116.706 134.768C124.154 134.768 130.187 128.912 130.187 121.682V119.065C130.187 113.062 125.978 107.828 119.98 106.377L99.5845 101.428C96.2653 100.624 92.866 100.218 89.4489 100.218C81.1997 100.218 66.2677 107.033 66.2677 107.033L41.2 117.493M7 113.868L7 163.35C7 168.128 7 170.517 7.93189 172.342C8.75161 173.947 10.0596 175.252 11.6684 176.07C13.4973 177 15.8915 177 20.68 177H27.52C32.3084 177 34.7027 177 36.5316 176.07C38.1404 175.252 39.4484 173.947 40.2681 172.342C41.2 170.517 41.2 168.128 41.2 163.35V113.868C41.2 109.091 41.2 106.702 40.2681 104.877C39.4484 103.271 38.1404 101.966 36.5316 101.148C34.7027 100.218 32.3085 100.218 27.52 100.218H20.68C15.8916 100.218 13.4973 100.218 11.6684 101.148C10.0596 101.966 8.75161 103.271 7.9319 104.877C7 106.702 7 109.091 7 113.868ZM136.886 19.9582C131.783 9.30387 120.019 3.65947 108.578 9.10745C97.1366 14.5554 92.2623 27.4754 97.0525 38.8173C100.013 45.8268 108.495 59.4389 114.543 68.815C116.777 72.2794 117.895 74.0116 119.527 75.0249C120.926 75.8941 122.679 76.3626 124.326 76.3082C126.248 76.2449 128.083 75.3022 131.754 73.4168C141.69 68.3141 155.857 60.7574 161.933 56.1639C171.765 48.7314 174.2 35.0699 166.839 24.6844C159.479 14.299 146.644 13.2771 136.886 19.9582Z" stroke="black" stroke-width="13" stroke-linecap="round" stroke-linejoin="round"/>
</svg>
